<svg xmlns="http://www.w3.org/2000/svg" width="860" height="818" role="img">
<rect width="100%" height="100%" fill="#fbfaf7"/>
<text x="24" y="34" font-size="22" font-family="Georgia, serif" fill="#1d2b2a">WLASL-25 evaluation class distribution</text>
<text x="24" y="84" font-size="13" font-family="Arial" fill="#243331">drink</text>
<rect x="250" y="69" width="193" height="20" rx="5" fill="#2f6f73"/>
<text x="453" y="84" font-size="13" font-family="Arial" fill="#243331">1</text>
<text x="24" y="118" font-size="13" font-family="Arial" fill="#243331">computer</text>
<rect x="250" y="103" width="193" height="20" rx="5" fill="#2f6f73"/>
<text x="453" y="118" font-size="13" font-family="Arial" fill="#243331">1</text>
<text x="24" y="152" font-size="13" font-family="Arial" fill="#243331">before</text>
<rect x="250" y="137" width="580" height="20" rx="5" fill="#2f6f73"/>
<text x="840" y="152" font-size="13" font-family="Arial" fill="#243331">3</text>
<text x="24" y="186" font-size="13" font-family="Arial" fill="#243331">go</text>
<rect x="250" y="171" width="193" height="20" rx="5" fill="#2f6f73"/>
<text x="453" y="186" font-size="13" font-family="Arial" fill="#243331">1</text>
<text x="24" y="220" font-size="13" font-family="Arial" fill="#243331">who</text>
<rect x="250" y="205" width="193" height="20" rx="5" fill="#2f6f73"/>
<text x="453" y="220" font-size="13" font-family="Arial" fill="#243331">1</text>
<text x="24" y="254" font-size="13" font-family="Arial" fill="#243331">candy</text>
<rect x="250" y="239" width="580" height="20" rx="5" fill="#2f6f73"/>
<text x="840" y="254" font-size="13" font-family="Arial" fill="#243331">3</text>
<text x="24" y="288" font-size="13" font-family="Arial" fill="#243331">cousin</text>
<rect x="250" y="273" width="386" height="20" rx="5" fill="#2f6f73"/>
<text x="646" y="288" font-size="13" font-family="Arial" fill="#243331">2</text>
<text x="24" y="322" font-size="13" font-family="Arial" fill="#243331">help</text>
<rect x="250" y="307" width="386" height="20" rx="5" fill="#2f6f73"/>
<text x="646" y="322" font-size="13" font-family="Arial" fill="#243331">2</text>
<text x="24" y="356" font-size="13" font-family="Arial" fill="#243331">thin</text>
<rect x="250" y="341" width="386" height="20" rx="5" fill="#2f6f73"/>
<text x="646" y="356" font-size="13" font-family="Arial" fill="#243331">2</text>
<text x="24" y="390" font-size="13" font-family="Arial" fill="#243331">yes</text>
<rect x="250" y="375" width="193" height="20" rx="5" fill="#2f6f73"/>
<text x="453" y="390" font-size="13" font-family="Arial" fill="#243331">1</text>
<text x="24" y="424" font-size="13" font-family="Arial" fill="#243331">cool</text>
<rect x="250" y="409" width="386" height="20" rx="5" fill="#2f6f73"/>
<text x="646" y="424" font-size="13" font-family="Arial" fill="#243331">2</text>
<text x="24" y="458" font-size="13" font-family="Arial" fill="#243331">thanksgiving</text>
<rect x="250" y="443" width="193" height="20" rx="5" fill="#2f6f73"/>
<text x="453" y="458" font-size="13" font-family="Arial" fill="#243331">1</text>
<text x="24" y="492" font-size="13" font-family="Arial" fill="#243331">what</text>
<rect x="250" y="477" width="580" height="20" rx="5" fill="#2f6f73"/>
<text x="840" y="492" font-size="13" font-family="Arial" fill="#243331">3</text>
<text x="24" y="526" font-size="13" font-family="Arial" fill="#243331">bowling</text>
<rect x="250" y="511" width="193" height="20" rx="5" fill="#2f6f73"/>
<text x="453" y="526" font-size="13" font-family="Arial" fill="#243331">1</text>
<text x="24" y="560" font-size="13" font-family="Arial" fill="#243331">shirt</text>
<rect x="250" y="545" width="386" height="20" rx="5" fill="#2f6f73"/>
<text x="646" y="560" font-size="13" font-family="Arial" fill="#243331">2</text>
<text x="24" y="594" font-size="13" font-family="Arial" fill="#243331">tall</text>
<rect x="250" y="579" width="193" height="20" rx="5" fill="#2f6f73"/>
<text x="453" y="594" font-size="13" font-family="Arial" fill="#243331">1</text>
<text x="24" y="628" font-size="13" font-family="Arial" fill="#243331">accident</text>
<rect x="250" y="613" width="386" height="20" rx="5" fill="#2f6f73"/>
<text x="646" y="628" font-size="13" font-family="Arial" fill="#243331">2</text>
<text x="24" y="662" font-size="13" font-family="Arial" fill="#243331">change</text>
<rect x="250" y="647" width="193" height="20" rx="5" fill="#2f6f73"/>
<text x="453" y="662" font-size="13" font-family="Arial" fill="#243331">1</text>
<text x="24" y="696" font-size="13" font-family="Arial" fill="#243331">corn</text>
<rect x="250" y="681" width="386" height="20" rx="5" fill="#2f6f73"/>
<text x="646" y="696" font-size="13" font-family="Arial" fill="#243331">2</text>
<text x="24" y="730" font-size="13" font-family="Arial" fill="#243331">dark</text>
<rect x="250" y="715" width="386" height="20" rx="5" fill="#2f6f73"/>
<text x="646" y="730" font-size="13" font-family="Arial" fill="#243331">2</text>
<text x="24" y="764" font-size="13" font-family="Arial" fill="#243331">short</text>
<rect x="250" y="749" width="193" height="20" rx="5" fill="#2f6f73"/>
<text x="453" y="764" font-size="13" font-family="Arial" fill="#243331">1</text>
<text x="24" y="798" font-size="13" font-family="Arial" fill="#243331">trade</text>
<rect x="250" y="783" width="193" height="20" rx="5" fill="#2f6f73"/>
<text x="453" y="798" font-size="13" font-family="Arial" fill="#243331">1</text>
</svg>